<svg width="85" height="55" viewBox="0 0 85 55" fill="none" xmlns="http://www.w3.org/2000/svg">
<path fill-rule="evenodd" clip-rule="evenodd" d="M4.95911e-05 27.538C4.95911e-05 12.6008 12.1091 0.491795 27.0463 0.491795C38.7808 0.491795 48.7699 7.96492 52.514 18.4115C51.7454 18.8257 51.0367 19.3366 50.4042 19.9282V19.9159C44.1687 26.0368 40.6142 25.9373 34.1765 19.9159V19.9282C32.3746 18.2429 29.9538 17.2113 27.292 17.2113C21.7245 17.2113 17.2111 21.7246 17.2111 27.2921C17.2111 32.8597 21.7245 37.373 27.292 37.373C29.9538 37.373 32.3746 36.3414 34.1765 34.6561V34.6684L34.2712 34.5664C34.5 34.3468 34.7185 34.1166 34.9258 33.8764C40.3796 28.243 43.8197 27.7354 49.4554 33.638C49.7279 33.974 50.0216 34.2921 50.3345 34.5903L50.4042 34.6684V34.6561C51.0762 35.2846 51.8343 35.8222 52.6589 36.2493C49.0333 46.9126 38.9357 54.5842 27.0463 54.5842C12.1091 54.5842 4.95911e-05 42.4752 4.95911e-05 27.538Z" fill="black"/>
<path fill-rule="evenodd" clip-rule="evenodd" d="M84.6225 27.0462C84.6225 41.9834 72.5135 54.0924 57.5763 54.0924C45.8417 54.0924 35.8526 46.6193 32.1086 36.1726C32.8771 35.7585 33.5858 35.2475 34.2181 34.6561V34.6683C41.5527 26.8003 44.5032 28.5215 50.4459 34.6683V34.6561C52.2477 36.3413 54.6686 37.3729 57.3304 37.3729C62.8979 37.3729 67.4112 32.8596 67.4112 27.2921C67.4112 21.7246 62.8979 17.2112 57.3304 17.2112C54.6686 17.2112 52.2477 18.2429 50.4459 19.9281V19.9158L50.3512 20.0178C50.1224 20.2374 49.9039 20.4677 49.6966 20.7078C44.5032 25.0792 41.3068 26.3086 35.4058 20.8993C35.2111 20.7209 35.0092 20.5687 34.8167 20.4236C34.6256 20.2796 34.4438 20.1426 34.2879 19.994L34.2181 19.9158V19.9281C33.5462 19.2996 32.7881 18.7621 31.9636 18.335C35.5892 7.67172 45.6869 0 57.5763 0C72.5135 0 84.6225 12.109 84.6225 27.0462Z" fill="#5452FC"/>
<path d="M52.6171 18.4406C51.0466 12.0134 43.028 5.16334 41.7986 4.91748C41.7986 4.91748 33.9306 10.3267 31.9636 18.1947L34.4224 20.1617C38.0619 23.3724 40.0196 24.7037 43.028 24.3416C45.2091 24.0604 46.5584 23.3468 49.1749 21.1452C50.5091 19.6993 51.2657 19.2202 52.6171 18.4406Z" fill="black"/>
<path d="M52.6171 36.1436C51.0092 42.7951 44.0408 49.4123 42.7821 49.6667C42.7821 49.6667 33.9775 44.2862 31.9636 36.1436L34.4809 33.8906C38.2071 30.5679 40.2114 29.1901 43.2914 29.5649C45.5244 29.8559 46.2502 30.6689 48.929 32.9473C50.295 34.4437 51.2335 35.3368 52.6171 36.1436Z" fill="#5452FC"/>
</svg>
