<?xml version="1.0" encoding="UTF-8"?>
<svg version="1.1" xmlns="http://www.w3.org/2000/svg" width="900" height="900">
<path d="M0 0 C3.96244461 0.00020663 7.92488226 -0.00533905 11.8873235 -0.01005757 C19.62181 -0.01830515 27.35628888 -0.02110961 35.09077942 -0.02166995 C41.37931626 -0.02214741 47.66785063 -0.02421352 53.95638669 -0.02737057 C71.82337943 -0.03615679 89.6903662 -0.0407925 107.55736112 -0.0400401 C108.51722633 -0.04000014 109.47709155 -0.03996019 110.46604359 -0.03991902 C111.90761583 -0.0398577 111.90761583 -0.0398577 113.37831075 -0.03979514 C128.97920125 -0.03938802 144.58006769 -0.04897933 160.18095123 -0.06305739 C176.23682859 -0.07743089 192.2926942 -0.08432721 208.34857816 -0.08346361 C217.34831433 -0.08313224 226.3480252 -0.08585359 235.34775555 -0.09664166 C243.00175937 -0.10575892 250.65572636 -0.1079114 258.30973326 -0.10113224 C262.21001593 -0.0978748 266.110228 -0.09778251 270.01050389 -0.10648549 C273.58728427 -0.11438447 277.16393844 -0.11288473 280.74071587 -0.10420135 C282.632753 -0.10195588 284.52479415 -0.10946766 286.41681582 -0.117441 C300.93088974 -0.05928674 312.40244816 1.70017638 323.29245961 11.72350872 C330.73319723 20.2350536 332.78926268 29.5265175 332.68699086 40.46960247 C331.94044311 50.36398879 327.49642528 58.37532947 320.33933461 65.08678997 C311.16975993 72.73875211 302.47493263 73.58831202 290.78200734 73.53065288 C289.41080604 73.53466531 288.03960808 73.53999475 286.66841644 73.54651862 C282.9191682 73.56061447 279.17013775 73.55625625 275.42087889 73.54880548 C271.36947017 73.54405273 267.31811068 73.55664121 263.26671803 73.56716716 C256.24911297 73.58312587 249.23156562 73.58841958 242.2139436 73.58663929 C232.04596213 73.58425053 221.87807239 73.60027784 211.71011493 73.62109184 C195.18312651 73.65460806 178.6561463 73.67627358 162.12912953 73.68908489 C160.64633511 73.69023912 160.64633511 73.69023912 159.13358525 73.69141667 C155.12935085 73.69451831 151.12511643 73.69760113 147.12088199 73.70065672 C136.12200151 73.70917264 125.12312393 73.72007805 114.12424672 73.73205364 C112.64827079 73.73365567 112.64827079 73.73365567 111.14247718 73.73529006 C94.68910236 73.75343285 78.23574692 73.77945652 61.78239101 73.81018478 C51.65155775 73.82866106 41.52076814 73.83964971 31.38991777 73.8407067 C24.43437957 73.84181694 17.47887119 73.84983434 10.52334561 73.86309034 C6.5208838 73.87045003 2.51848727 73.87465445 -1.48398006 73.86997211 C-39.58567776 73.83030904 -75.16933212 76.53415261 -103.84816539 104.40710247 C-104.75308727 105.31073528 -105.65800914 106.21436809 -106.59035289 107.14538372 C-107.39214977 107.93557903 -108.19394664 108.72577434 -109.02004039 109.53991497 C-133.41939492 134.9946049 -136.92659593 169.03787601 -136.84432018 202.54968059 C-136.84663073 204.63158833 -136.84981121 206.71349525 -136.85377467 208.7954005 C-136.86204963 214.45801706 -136.85803096 220.12056537 -136.85180223 225.78318202 C-136.84724857 231.91279084 -136.85427586 238.0423885 -136.85976207 244.17199504 C-136.86811575 255.46600054 -136.86742828 266.75997855 -136.86193914 278.05398333 C-136.85689209 288.49062104 -136.85560201 298.92725089 -136.85798442 309.36388958 C-136.85813719 310.05833106 -136.85828996 310.75277255 -136.85844736 311.46825773 C-136.85907012 314.28778807 -136.85970693 317.10731841 -136.86036689 319.92684874 C-136.86647391 346.33308251 -136.86095543 372.73930262 -136.8501731 399.14553428 C-136.84068311 422.56476224 -136.84153242 445.98396844 -136.85109508 469.40319622 C-136.86182293 495.76360457 -136.86604067 522.12400088 -136.85987055 548.48441112 C-136.8592292 551.2985667 -136.85860351 554.11272228 -136.85798442 556.92687786 C-136.85774719 557.96612192 -136.85774719 557.96612192 -136.85750517 559.02636081 C-136.85523788 569.45202476 -136.85787642 579.87767996 -136.86294353 590.3033427 C-136.86868122 602.16730229 -136.8670007 614.03123626 -136.85638204 625.89519489 C-136.85114789 631.94122192 -136.84902988 637.98720497 -136.85568035 644.03323162 C-136.86168892 649.57984509 -136.85828467 655.12637424 -136.84772524 660.67298019 C-136.84551185 662.66734059 -136.84658042 664.66170829 -136.85147682 666.65606391 C-136.93012941 701.38701433 -131.36183893 733.64621283 -106.32863414 759.40319622 C-104.97318492 760.76057903 -104.97318492 760.76057903 -103.59035289 762.14538372 C-102.80015758 762.94718059 -102.00996227 763.74897747 -101.19582164 764.57507122 C-84.73969268 780.34893944 -59.87773613 791.23044343 -37.01116931 791.28404891 C-35.03906496 791.29226058 -35.03906496 791.29226058 -33.02712011 791.30063814 C-31.57485996 791.30171422 -30.12259974 791.30269894 -28.67033947 791.3036021 C-27.1224845 791.30816992 -25.57463076 791.31317027 -24.02677846 791.31856567 C-19.77614863 791.33213109 -15.5255268 791.33956051 -11.27488101 791.34599233 C-6.69006704 791.35400328 -2.10526966 791.36769867 2.47953236 791.38070476 C10.42211715 791.40245763 18.36470363 791.42060648 26.30730259 791.4363097 C37.79097754 791.45901913 49.27463411 791.48716049 60.75829346 791.51662897 C79.38962849 791.5642917 98.02097104 791.60755947 116.65232289 791.64806926 C134.75128717 791.6874309 152.85024477 791.72885873 170.94919789 791.77306926 C172.06475789 791.77579353 173.1803179 791.77851781 174.32968275 791.78132463 C179.92610168 791.79500422 185.5225205 791.80872447 191.11893928 791.82246494 C237.5491613 791.93640899 283.97939776 792.04322294 330.40964711 792.14538372 C330.40411635 790.94883757 330.40411635 790.94883757 330.39847386 789.72811878 C330.30981782 770.24414442 330.24378997 750.76021076 330.20239842 731.27607715 C330.1818455 721.85336958 330.1538654 712.43079734 330.10788929 703.00817668 C330.06779733 694.78751129 330.04216159 686.56694399 330.03329313 678.34618354 C330.02811589 674.0004922 330.01610268 669.65508127 329.98672688 665.30948055 C329.74471463 628.03368863 336.08977592 598.32426924 362.65964711 570.52038372 C387.41663892 546.38145828 418.81761813 539.93962501 452.30954945 540.03185833 C453.74016772 540.0321413 455.17078613 540.03198032 456.60140431 540.03141582 C460.43724291 540.03113213 464.27304942 540.03695875 468.10888064 540.04398978 C472.13537343 540.05029545 476.16186718 540.05083277 480.18836415 540.05201519 C487.79171308 540.05510743 495.39504742 540.06329205 502.99838996 540.07336468 C511.66360215 540.0845917 520.32881508 540.09005278 528.99403274 540.09506011 C546.79924577 540.10547672 564.60444526 540.12303483 582.40964711 540.14538372 C582.40411635 538.6981275 582.40411635 538.6981275 582.39847386 537.22163379 C582.30960795 513.7264213 582.24391196 490.23123066 582.20239842 466.7358855 C582.18178829 455.37362616 582.15369721 444.01147796 582.10788929 432.64928997 C582.06797422 422.74402494 582.04220304 412.83884041 582.03329313 402.93349719 C582.02808632 397.69046796 582.01588053 392.44766901 581.98672688 387.2047137 C581.95948407 382.2651682 581.95122003 377.32594684 581.95721638 372.38633335 C581.95612011 370.5780014 581.94821923 368.76965809 581.93282521 366.96139133 C581.82178552 353.23967415 583.18194829 343.60176801 592.97214711 333.34460247 C600.14990795 326.86851376 608.51388199 323.7473022 618.15964711 323.77038372 C618.86266957 323.77199504 619.56569203 323.77360637 620.2900182 323.77526653 C626.29902251 323.91594095 631.12014961 325.22598798 636.40964711 328.14538372 C637.44089711 328.70225872 638.47214711 329.25913372 639.53464711 329.83288372 C647.38685654 336.1487913 653.31939601 343.49661856 654.77931309 353.73881221 C654.91786725 356.50476536 654.93850867 359.24546912 654.91085255 362.01475322 C654.91638695 363.06344823 654.92192134 364.11214324 654.92762345 365.19261688 C654.9411625 368.68289654 654.92629643 372.1724527 654.91135609 375.6627177 C654.9151419 378.17520755 654.9206441 380.68769531 654.92772877 383.20017803 C654.9402259 389.30402827 654.93413199 395.40761342 654.91905319 401.51145028 C654.90212544 408.63762114 654.90541232 415.7637412 654.90914727 422.88992596 C654.91501973 435.62184876 654.90088371 448.35367256 654.87619984 461.08556926 C654.85232642 473.40103679 654.84517865 485.71637182 654.85569203 498.03185833 C654.86714559 511.4725606 654.8689733 524.91320164 654.85459393 538.35390323 C654.8530683 539.79231667 654.85154794 541.23073011 654.85003293 542.66914356 C654.84927511 543.3766606 654.8485173 544.08417764 654.84773652 544.81313459 C654.84302426 549.76263814 654.84482356 554.71211407 654.84909832 559.66161716 C654.85458963 566.35038839 654.84360962 573.03895196 654.82214367 579.72769916 C654.81662529 582.1691952 654.81606436 584.61070883 654.82109654 587.05220592 C654.85305152 604.79477213 653.78333617 621.81115697 648.59714711 638.89538372 C648.33852894 639.76896526 648.07991078 640.6425468 647.8134557 641.54260051 C645.46857928 649.28381729 642.71832695 656.75706951 639.40964711 664.14538372 C639.12927601 664.77186809 638.84890492 665.39835247 638.56003773 666.04382122 C634.85007893 674.20081673 630.52242326 681.84770764 625.59714711 689.33288372 C624.92401478 690.36409343 624.92401478 690.36409343 624.23728383 691.41613567 C616.46135516 702.91572952 606.85723189 712.99973758 597.07346547 722.78796184 C595.98738217 723.88169598 594.90169091 724.97581954 593.81635487 726.07029521 C590.90545742 729.00285234 587.98827859 731.9290759 585.06909454 734.85338199 C583.23517284 736.69098043 581.40254754 738.52986225 579.57032406 740.36915386 C573.14881879 746.8150512 566.72170372 753.25529899 560.28977406 759.69079387 C554.34140123 765.64279748 548.40628704 771.60780119 542.4770804 777.57889211 C537.34591013 782.74500443 532.20491416 787.90120628 527.05659026 793.05022371 C523.99963478 796.10796367 520.94659468 799.16935436 517.90370953 802.2411021 C505.20672643 815.05105094 492.72388454 827.42025414 477.40964711 837.14538372 C476.67869769 837.61250774 475.94774827 838.07963176 475.19464886 838.56091106 C449.46448844 854.89168559 419.49731414 864.25301166 389.06303227 865.70105827 C388.19088791 865.74321781 387.31874354 865.78537735 386.42017056 865.82881446 C377.59642238 866.22637989 368.78651819 866.27780883 359.95548451 866.25459087 C358.19403842 866.25375768 356.43259208 866.25336186 354.6711458 866.25335795 C349.89418292 866.25204261 345.11724925 866.24439875 340.3402952 866.23554254 C335.16359156 866.22704427 329.98688403 866.22445193 324.81017506 866.22094524 C312.34812702 866.21116234 299.88610214 866.1915127 287.42406845 866.17068449 C281.53768325 866.16106376 275.65129652 866.15250822 269.76490986 866.14383304 C250.17288257 866.11456502 230.58086178 866.08283494 210.98885167 866.04361236 C205.92094627 866.03349429 200.85304086 866.02338239 195.78513539 866.01330364 C194.52574836 866.01079676 193.26636133 866.00828989 191.96881106 866.00570705 C171.56177691 865.96554654 151.15476076 865.94237146 130.74769482 865.926325 C109.74223913 865.9095396 88.73684776 865.87778823 67.73143613 865.83144099 C55.95911878 865.80582687 44.1868693 865.7865791 32.41452229 865.78406513 C22.39259031 865.78187339 12.37079437 865.76597944 2.34891537 865.73273263 C-2.75387577 865.71620888 -7.85646814 865.70581713 -12.95928562 865.71303928 C-70.27816219 865.78209792 -117.8240017 851.69984537 -159.77785289 811.27038372 C-193.95717387 776.19602323 -209.9349859 730.4072943 -209.85777843 682.04690349 C-209.8615197 679.81628199 -209.86612311 677.58566179 -209.87150908 675.35504365 C-209.88369584 669.25334113 -209.88348371 663.15169362 -209.88112032 657.04998171 C-209.88075315 651.13597822 -209.88974847 645.22199061 -209.8983461 639.30799497 C-209.91764288 625.72454084 -209.92331274 612.14110185 -209.92446022 598.55763562 C-209.92538108 588.06141419 -209.92950696 577.56519866 -209.93586147 567.06897914 C-209.93765671 564.04210981 -209.93943634 561.01524048 -209.94121122 557.98837113 C-209.94165332 557.23576566 -209.94209542 556.48316018 -209.94255091 555.70774848 C-209.95485211 534.55015367 -209.96275279 513.3925609 -209.96186435 492.23496234 C-209.96183319 491.43798155 -209.96180204 490.64100076 -209.96176994 489.81986903 C-209.96160373 485.78092199 -209.96140565 481.74197496 -209.96120052 477.70302792 C-209.96116063 476.90095611 -209.96112074 476.09888431 -209.96107964 475.2725073 C-209.96099877 473.65052255 -209.96091517 472.02853779 -209.96082886 470.40655304 C-209.95960422 445.18910242 -209.97460339 419.97170565 -210.00197399 394.75427043 C-210.03275197 366.38616928 -210.04990299 338.0181035 -210.04804754 309.6499846 C-210.0478983 306.61997171 -210.04780087 303.58995883 -210.04773891 300.55994594 C-210.0477156 299.81394754 -210.04769229 299.06794913 -210.04766828 298.29934472 C-210.04760695 286.33788126 -210.06033299 274.37646487 -210.07760344 262.41501538 C-210.09462798 250.37405771 -210.09648077 238.33316826 -210.0833848 226.29220517 C-210.0766822 219.77987848 -210.07664946 213.26768666 -210.0940913 206.75537288 C-210.10993554 200.77770678 -210.10684355 194.80034216 -210.08952303 188.8226829 C-210.08647792 186.67598463 -210.08998985 184.52926321 -210.10124318 182.38259228 C-210.34924798 131.65797438 -190.66506578 87.22537266 -155.71535289 50.95788372 C-112.28611341 8.63688639 -58.29305569 -0.01902073 0 0 Z M411.16355336 625.91882122 C402.47105496 636.95384145 402.10594669 649.71255547 402.18259633 663.24572551 C402.18316182 664.62664075 402.18284118 666.00755659 402.18171132 667.38847148 C402.18114221 671.10263164 402.19282413 674.81666015 402.20685923 678.53078997 C402.21944103 682.42516684 402.22054292 686.3195474 402.22291005 690.21394145 C402.22910307 697.57304194 402.24548413 704.93208233 402.26560903 712.29115647 C402.28803616 720.67576593 402.29897852 729.06037839 402.3089999 737.44501042 C402.32985251 754.67850282 402.36498572 771.9119369 402.40964711 789.14538372 C404.27919056 788.93280925 404.27919056 788.93280925 406.18650258 788.71594036 C406.88758137 788.63622493 407.58866017 788.55650951 408.31098378 788.47437847 C432.42477803 784.69420486 452.73586197 763.97333364 469.04685414 747.65344036 C469.9522997 746.75135341 470.85774525 745.84926647 471.79062855 744.91984355 C474.24330409 742.47589413 476.6928313 740.0288139 479.14146864 737.58081925 C480.67776203 736.04524234 482.21476772 734.51038204 483.75202 732.97576511 C489.13243662 727.60456083 494.51030458 722.23082019 499.88572133 716.85461223 C504.86969384 711.8700385 509.8592255 706.89107794 514.85137868 701.91469854 C519.16270035 697.61650728 523.47010183 693.3144134 527.77454472 689.00933343 C530.33439746 686.44922753 532.89572789 683.89064756 535.46104252 681.33601367 C538.32343934 678.48521397 541.17762959 675.62632722 544.03122914 672.76672161 C544.8657259 671.93784435 545.70022267 671.10896709 546.56000721 670.25497234 C560.78829914 655.95089348 572.14071781 639.34769938 577.58152211 619.73522747 C577.92795765 618.49506877 578.2743932 617.25491008 578.63132679 615.97717083 C578.8881725 615.04268108 579.1450182 614.10819133 579.40964711 613.14538372 C561.21551847 613.09857181 543.02140556 613.06334995 524.82722962 613.04175937 C516.37852598 613.03146608 507.92985986 613.01744315 499.48118031 612.99450481 C492.11354235 612.97451113 484.74593157 612.96165314 477.37826723 612.95720673 C473.48057818 612.95460943 469.58296688 612.94854564 465.68530285 612.9339236 C462.00898495 612.92024502 458.33277607 612.91618161 454.65643513 612.91916835 C452.67971345 612.91836462 450.70300336 612.90765718 448.72631276 612.89654338 C434.20048421 612.92978159 421.43882481 614.83398292 411.16355336 625.91882122 Z " fill="#29B8CC" transform="translate(227.59035289287567,16.854616284370422)"/>
<path d="M0 0 C20.52904224 18.78188971 33.29152014 47.26104409 34.81298828 74.83691406 C35.64846408 95.65243666 32.07950049 114.81664669 23 133.625 C22.72196533 134.21297363 22.44393066 134.80094727 22.1574707 135.40673828 C14.37830418 150.7749828 2.32282326 162.49752477 -9.73908997 174.49029541 C-11.62021752 176.37532062 -13.50053782 178.26112105 -15.37991351 180.14788985 C-19.45100732 184.23182033 -23.52938565 188.30835729 -27.61278534 192.37998199 C-33.68511573 198.43485042 -39.74586868 204.50121142 -45.80445994 210.56982351 C-56.62835502 221.41087157 -67.46353972 232.24057925 -78.30352732 243.0655337 C-87.78963084 252.53856693 -97.27177736 262.01553957 -106.75006676 271.4963913 C-107.37966687 272.12615183 -108.00926698 272.75591235 -108.65794589 273.40475654 C-111.21391701 275.96139128 -113.76986873 278.51804542 -116.32579201 281.07472799 C-140.28421455 305.04016878 -164.25386384 328.9943519 -188.22887934 352.94319187 C-209.51339894 374.20459639 -230.78903751 395.47484796 -252.05688477 416.75292969 C-257.50384255 422.20248964 -262.95080889 427.65204104 -268.39786243 433.10150528 C-269.06853031 433.7724706 -269.73919818 434.44343592 -270.43018933 435.13473353 C-288.22039223 452.93255686 -306.01761529 470.72335727 -323.81702536 488.51197219 C-325.73299045 490.42678952 -327.64895325 492.34160914 -329.5649124 494.2564324 C-330.83582071 495.52658547 -332.10673422 496.79673333 -333.37765297 498.06687596 C-342.85274042 507.5363129 -352.32433979 517.00922912 -361.79432106 526.48377228 C-372.56536063 537.25992683 -383.34188725 548.03056146 -394.12553886 558.79409578 C-400.15526468 564.81286103 -406.18089932 570.83565278 -412.20059982 576.86444527 C-416.22782994 580.89691508 -420.26053756 584.92385231 -424.29764308 588.94643518 C-426.59366654 591.23449524 -428.88651308 593.5255774 -431.17440627 595.82177094 C-442.68043026 607.36594814 -454.14733002 618.14886353 -468.125 626.6875 C-468.79039795 627.09653564 -469.4557959 627.50557129 -470.14135742 627.92700195 C-507.75387868 650.67840011 -547.45791937 655.11326695 -590.625 654.43041992 C-594.46616883 654.37458326 -598.3069776 654.34641169 -602.1484375 654.31835938 C-604.62242069 654.28294589 -607.09638112 654.24589569 -609.5703125 654.20703125 C-610.70276398 654.20266556 -611.83521545 654.19829987 -613.00198364 654.19380188 C-624.29694884 653.95290197 -631.96108975 650.72744716 -640.11328125 642.93359375 C-648.24148887 634.17014432 -649.62038542 625.64804284 -649.796875 613.984375 C-649.8209845 612.74496155 -649.84509399 611.5055481 -649.86993408 610.22857666 C-649.91822456 607.59585908 -649.96253611 604.96341872 -650.00048828 602.33056641 C-650.0580646 598.39570769 -650.14469156 594.4616904 -650.23046875 590.52734375 C-650.94046268 552.33102551 -646.86918816 516.48556066 -628.3125 482.5625 C-627.74789062 481.51835938 -627.18328125 480.47421875 -626.6015625 479.3984375 C-614.76225872 458.33225847 -597.91022666 442.01035568 -580.96257019 425.05867004 C-579.11479108 423.2068685 -577.26722072 421.35485864 -575.41983968 419.50265998 C-570.8980785 414.96991739 -566.37368805 410.43980794 -561.84843767 405.91054909 C-556.42170726 400.47877502 -550.99782464 395.04416051 -545.57392769 389.60955737 C-531.85278157 375.86168064 -518.12583534 362.11960058 -504.39805767 348.37834623 C-500.67790659 344.65451903 -496.95791863 340.9305289 -493.23796678 337.20650268 C-470.11740667 314.06068821 -446.99523505 290.91648486 -423.86826611 267.77707386 C-418.52047068 262.42635751 -413.17269862 257.07561782 -407.82495117 251.72485352 C-406.82845091 250.72779689 -406.82845091 250.72779689 -405.81181934 249.71059772 C-384.25999039 228.14660616 -362.71758261 206.57323418 -341.18051731 184.99449813 C-319.01275902 162.78392735 -296.83690732 140.58147153 -274.65034777 118.38968081 C-271.51547087 115.25406354 -268.38067914 112.11836114 -265.24593544 108.9826107 C-264.62905337 108.36553802 -264.01217131 107.74846534 -263.37659585 107.11269349 C-253.46528845 97.19787799 -243.56238821 87.27470664 -233.66255607 77.3484347 C-223.7099019 67.36960102 -213.74802631 57.40004785 -203.77679583 47.43977574 C-197.85972683 41.52866957 -191.94965193 35.61077023 -186.04956422 29.6827133 C-181.63509226 25.24887279 -177.20754203 20.82831052 -172.77491049 16.41262873 C-170.99002585 14.63054084 -169.20931846 12.84425667 -167.43336394 11.05326924 C-155.52143138 -0.95326574 -143.53602265 -11.74741013 -127.9375 -18.75 C-127.24035889 -19.0692041 -126.54321777 -19.3884082 -125.82495117 -19.71728516 C-82.83911317 -38.76755353 -35.59445742 -29.3918589 0 0 Z M-132.11988831 79.22944641 C-133.9082374 81.01520771 -135.6967996 82.80075562 -137.48555511 84.58610982 C-141.86511056 88.95847998 -146.24236145 93.33314594 -150.61860498 97.70883063 C-155.86643404 102.95574058 -161.11714248 108.19976562 -166.36788294 113.44376176 C-179.05019542 126.11007157 -191.72748282 138.78140583 -204.4041925 151.45332258 C-210.40567833 157.45246767 -216.40779508 163.45098136 -222.40998614 169.44942084 C-242.97414091 190.00074798 -263.53724276 210.55312778 -284.09671116 231.10914326 C-285.38538486 232.39759533 -286.67405864 233.68604732 -287.96273249 234.97449924 C-289.25441461 236.26596072 -290.54609666 237.55742229 -291.83777863 238.84888393 C-294.4288784 241.43954116 -297.01998047 244.03019611 -299.61108398 246.62084961 C-300.25351789 247.26317412 -300.89595179 247.90549863 -301.55785338 248.56728752 C-322.39672957 269.4025317 -343.24174582 290.23161844 -364.09045135 311.05702661 C-386.15745663 333.09941835 -408.21900171 355.14726037 -430.27430099 377.20136517 C-432.69661519 379.62350793 -435.11895138 382.04562869 -437.54130363 384.46773338 C-438.13770814 385.06408212 -438.73411264 385.66043085 -439.34859 386.27485075 C-448.93032267 395.85543465 -458.51697535 405.43108063 -468.10541191 415.0049546 C-477.7457662 424.63092057 -487.38051507 434.26246907 -497.00966281 443.89964548 C-502.72375961 449.61818668 -508.44194215 455.33256809 -514.16619714 461.0409413 C-518.44864828 465.31244428 -522.72314554 469.59181734 -526.99470209 473.87421813 C-528.717348 475.59881783 -530.44250476 477.32091417 -532.17049117 479.04016284 C-558.84968265 505.59302679 -576.78741135 533.83364215 -577.35742188 572.61914062 C-577.35911624 575.26742927 -577.34633691 577.9144487 -577.3125 580.5625 C-543.08335886 581.59661303 -515.27169464 574.20927171 -489.5542202 550.37314701 C-489.00079764 549.86069723 -488.44737509 549.34824744 -487.87718215 548.82026887 C-479.83556019 541.31380635 -472.09691264 533.49539171 -464.31997681 525.71714783 C-462.52378651 523.9242631 -460.72738567 522.13158927 -458.93079412 520.33910662 C-454.53586703 515.95308787 -450.14323488 511.56478199 -445.75161784 507.1754493 C-440.48475212 501.91156598 -435.2150266 496.650549 -429.94529214 491.38953788 C-417.21994019 478.68493959 -404.4996931 465.97523534 -391.78029817 453.26467353 C-385.7598591 447.24845058 -379.73891815 441.23273002 -373.71796334 435.21702322 C-353.09234456 414.60927921 -332.46816415 394.00009668 -311.84775734 373.38713741 C-310.55561066 372.09546548 -309.26346341 370.80379412 -307.97131559 369.51212332 C-307.33056684 368.87161095 -306.6898181 368.23109859 -306.02965273 367.57117675 C-302.78360955 364.32633471 -299.53755921 361.08149984 -296.29150391 357.83666992 C-295.64733501 357.19274118 -295.00316612 356.54881243 -294.33947696 355.8853707 C-273.43218046 334.9859753 -252.51712044 314.09437173 -231.59754534 293.2072673 C-209.45833218 271.1023551 -187.32642376 248.99015473 -165.20270765 226.86973196 C-162.77431049 224.44175233 -160.34588232 222.01380371 -157.91743088 219.58587837 C-157.31952003 218.98809072 -156.72160919 218.39030307 -156.10557984 217.77440064 C-146.4900724 208.16122372 -136.86792155 198.55472321 -127.24334141 188.95063075 C-117.57334761 179.30089554 -107.91076474 169.643789 -98.25564869 159.97916739 C-92.52229883 154.24060442 -86.78347479 148.50764754 -81.03658756 142.78264094 C-76.74369568 138.50485936 -72.46135844 134.21667112 -68.18298285 129.92436571 C-66.45256785 128.19156754 -64.71877137 126.46213817 -62.98125215 124.73646366 C-44.70826518 106.80457522 -44.70826518 106.80457522 -37.875 82.6875 C-38.31149578 71.22948576 -42.96265271 60.78891614 -51.12109375 52.7890625 C-83.05950317 26.62745478 -110.09378638 57.19050474 -132.11988831 79.22944641 Z " fill="#29B8CC" transform="translate(847.3125,48.4375)"/>
</svg>
